<svg width="16" height="16" viewBox="0 0 16 16" fill="none" xmlns="http://www.w3.org/2000/svg">
<path d="M10.6667 12C11.0204 12 11.3595 12.1405 11.6096 12.3905C11.8596 12.6406 12.0001 12.9797 12.0001 13.3333C12.0001 13.687 11.8596 14.0261 11.6096 14.2761C11.3595 14.5262 11.0204 14.6667 10.6667 14.6667C10.3131 14.6667 9.97399 14.5262 9.72394 14.2761C9.47389 14.0261 9.33341 13.687 9.33341 13.3333C9.33341 12.9797 9.47389 12.6406 9.72394 12.3905C9.97399 12.1405 10.3131 12 10.6667 12ZM10.6667 12.6667C10.4899 12.6667 10.3204 12.7369 10.1953 12.8619C10.0703 12.987 10.0001 13.1565 10.0001 13.3333C10.0001 13.5101 10.0703 13.6797 10.1953 13.8047C10.3204 13.9298 10.4899 14 10.6667 14C10.8436 14 11.0131 13.9298 11.1382 13.8047C11.2632 13.6797 11.3334 13.5101 11.3334 13.3333C11.3334 13.1565 11.2632 12.987 11.1382 12.8619C11.0131 12.7369 10.8436 12.6667 10.6667 12.6667ZM4.66675 12C5.02037 12 5.35951 12.1405 5.60956 12.3905C5.8596 12.6406 6.00008 12.9797 6.00008 13.3333C6.00008 13.687 5.8596 14.0261 5.60956 14.2761C5.35951 14.5262 5.02037 14.6667 4.66675 14.6667C4.31313 14.6667 3.97399 14.5262 3.72394 14.2761C3.47389 14.0261 3.33341 13.687 3.33341 13.3333C3.33341 12.9797 3.47389 12.6406 3.72394 12.3905C3.97399 12.1405 4.31313 12 4.66675 12ZM4.66675 12.6667C4.48994 12.6667 4.32037 12.7369 4.19534 12.8619C4.07032 12.987 4.00008 13.1565 4.00008 13.3333C4.00008 13.5101 4.07032 13.6797 4.19534 13.8047C4.32037 13.9298 4.48994 14 4.66675 14C4.84356 14 5.01313 13.9298 5.13815 13.8047C5.26318 13.6797 5.33341 13.5101 5.33341 13.3333C5.33341 13.1565 5.26318 12.987 5.13815 12.8619C5.01313 12.7369 4.84356 12.6667 4.66675 12.6667ZM12.0001 4H2.84875L4.54675 8H10.0001C10.1037 8.00016 10.206 7.97599 10.2986 7.92945C10.3913 7.8829 10.4717 7.81527 10.5334 7.732L12.5334 5.06533H12.5341C12.608 4.96624 12.6529 4.84853 12.6638 4.72538C12.6747 4.60222 12.6511 4.47846 12.5957 4.36793C12.5403 4.2574 12.4553 4.16445 12.3501 4.09948C12.2449 4.0345 12.1237 4.00006 12.0001 4ZM10.0001 8.66667H4.57741L4.06675 9.70667L4.00008 10C4.00008 10.1768 4.07032 10.3464 4.19534 10.4714C4.32037 10.5964 4.48994 10.6667 4.66675 10.6667H12.0001V11.3333H4.66675C4.43459 11.3334 4.20643 11.2729 4.00484 11.1578C3.80324 11.0427 3.63521 10.8769 3.51735 10.6769C3.3995 10.4769 3.33591 10.2495 3.33288 10.0174C3.32985 9.78526 3.38749 9.55636 3.50008 9.35333L3.98008 8.37067L1.55875 2.66667H0.666748V2H2.00008L2.56608 3.33333H12.0001C12.252 3.33336 12.4988 3.40475 12.7118 3.53924C12.9248 3.67372 13.0953 3.86581 13.2037 4.09324C13.312 4.32066 13.3537 4.57413 13.3239 4.82428C13.2942 5.07443 13.1941 5.31103 13.0354 5.50667L11.0927 8.09733C10.9699 8.2732 10.8064 8.41681 10.6162 8.51593C10.426 8.61506 10.2146 8.66677 10.0001 8.66667Z" fill="#05080D"/>
</svg>
