<svg width="24" height="24" viewBox="0 0 24 24" fill="none" xmlns="http://www.w3.org/2000/svg">
<path d="M5.24355 12.2522C4.8152 11.8237 4.4834 11.3086 4.27042 10.7414C4.05743 10.1742 3.96817 9.56807 4.00863 8.96357C4.04908 8.35906 4.21831 7.77019 4.50498 7.23644C4.79164 6.7027 5.18911 6.23641 5.67074 5.86884C6.15236 5.50128 6.707 5.24094 7.29748 5.10527C7.88795 4.96961 8.5006 4.96176 9.09436 5.08225C9.68812 5.20274 10.2492 5.44878 10.7401 5.80389C11.231 6.15899 11.6403 6.61494 11.9405 7.14117H13.0585C13.3588 6.61494 13.7681 6.15899 14.259 5.80389C14.7498 5.44878 15.311 5.20274 15.9047 5.08225C16.4985 4.96176 17.1111 4.96961 17.7016 5.10527C18.2921 5.24094 18.8467 5.50128 19.3284 5.86884C19.81 6.23641 20.2074 6.7027 20.4941 7.23644C20.7808 7.77019 20.95 8.35906 20.9905 8.96357C21.0309 9.56807 20.9417 10.1742 20.7287 10.7414C20.5157 11.3086 20.1839 11.8237 19.7555 12.2522L12.4995 19.5102L5.24355 12.2532V12.2522ZM20.4615 12.9622C20.9737 12.45 21.3743 11.8374 21.6382 11.1629C21.9021 10.4884 22.0236 9.76653 21.995 9.0428C21.9664 8.31906 21.7884 7.60907 21.4721 6.95747C21.1558 6.30587 20.7081 5.72677 20.1572 5.25658C19.6062 4.7864 18.964 4.43529 18.2708 4.22536C17.5776 4.01543 16.8484 3.9512 16.1292 4.03673C15.4099 4.12225 14.7162 4.35568 14.0915 4.72232C13.4669 5.08896 12.9249 5.58089 12.4995 6.16717C12.0742 5.58089 11.5322 5.08896 10.9076 4.72232C10.2829 4.35568 9.58915 4.12225 8.86992 4.03673C8.15069 3.9512 7.42154 4.01543 6.72833 4.22536C6.03512 4.43529 5.39284 4.7864 4.8419 5.25658C4.29096 5.72677 3.84327 6.30587 3.52699 6.95747C3.21071 7.60907 3.03268 8.31906 3.00409 9.0428C2.9755 9.76653 3.09698 10.4884 3.36089 11.1629C3.62479 11.8374 4.02541 12.45 4.53755 12.9622L12.4995 20.9232L20.4615 12.9632V12.9622Z" fill="#66666E"/>
</svg>
